<?xml version="1.0" encoding="UTF-8"?>
<svg id="_Слой_1" data-name="Слой 1" xmlns="http://www.w3.org/2000/svg" version="1.1" viewBox="0 0 32 32">
  <defs>
    <style>
      .cls-1 {
        fill: #be1622;
      }

      .cls-1, .cls-2 {
        stroke-width: 0px;
      }

      .cls-2 {
        fill: #1d1d1b;
      }

      .cls-3 {
        fill: none;
        stroke: #be1622;
        stroke-miterlimit: 10;
        stroke-width: .25px;
      }
    </style>
  </defs>
  <polyline class="cls-3" points="8.5 7.33 8.5 4.96 23.5 4.96 23.5 7.33"/>
  <polyline class="cls-3" points="22 7.33 22 6.33 10 6.33 10 7.33"/>
  <polyline class="cls-3" points="8.5 22.96 8.5 25.33 23.5 25.33 23.5 22.96"/>
  <polyline class="cls-3" points="22 22.96 22 23.96 10 23.96 10 22.96"/>
  <g>
    <path class="cls-2" d="M1.59,15.92v-.32l.51-.21s.07-.04.09-.07.03-.08.03-.14v-4.59c0-.06-.01-.1-.04-.13-.02-.03-.05-.05-.09-.07l-.51-.22v-.31h1.95v.31l-.5.22s-.06.04-.09.07-.04.08-.04.13v1.92h2.32v-1.92c0-.06-.01-.1-.04-.13-.02-.03-.06-.05-.1-.07l-.5-.22v-.31h1.95v.31l-.5.22s-.07.04-.1.07c-.02.03-.04.07-.04.13v4.59c0,.06.01.11.04.14s.06.06.09.07l.5.21v.32h-1.95v-.32l.5-.21s.07-.04.1-.07c.02-.03.04-.08.04-.14v-2.15h-2.32v2.15c0,.06.01.11.03.14.02.03.05.05.09.07l.5.21v.32h-1.95Z"/>
    <path class="cls-2" d="M7.26,15.92v-.32l.51-.21s.07-.04.09-.07.03-.08.03-.14v-4.59c0-.06-.01-.1-.04-.13-.02-.03-.05-.05-.09-.07l-.51-.22v-.31h1.93c.36,0,.65.04.88.14.23.09.4.21.53.36.12.15.21.31.26.49.05.18.07.36.07.54,0,.33-.06.61-.17.85-.11.23-.26.42-.42.56-.17.14-.34.23-.5.28l-.53.28-.76-.2.03-.45s.07.02.14.03c.07.01.15.02.24.02s.15,0,.2,0c.24,0,.43-.06.59-.17.15-.11.27-.26.34-.44s.11-.38.11-.59c0-.42-.09-.73-.28-.92s-.46-.28-.83-.28h-.49v4.81c0,.06.01.11.04.14.02.03.05.06.09.07l.52.21v.32h-1.97ZM11.85,15.92h-.8c-.15,0-.26-.02-.33-.05-.07-.03-.13-.09-.18-.17-.05-.08-.11-.19-.19-.33l-1.18-2.09.67-.27,1.24,2.11s.06.1.12.16.1.1.15.12l.51.19v.32Z"/>
    <path class="cls-2" d="M14.44,16.06c-.4,0-.74-.08-1-.26s-.47-.39-.61-.66c-.14-.27-.2-.56-.2-.86v-3.69c0-.06-.01-.1-.04-.13-.02-.03-.06-.05-.1-.07l-.5-.22v-.31h1.95v.31l-.5.22s-.06.04-.09.07-.04.08-.04.13v3.26c0,.15.01.32.04.51s.09.36.17.53c.08.17.21.3.37.41.16.11.37.16.62.16s.47-.05.63-.16c.17-.11.3-.25.39-.41.1-.17.16-.34.2-.52.04-.18.06-.35.06-.49v-3.25c0-.06-.01-.1-.04-.13-.02-.03-.05-.05-.08-.06l-.5-.25v-.31h1.7v.31l-.5.25s-.06.04-.09.07c-.02.03-.04.07-.04.13v3.48c0,.35-.06.66-.18.91-.12.25-.27.45-.46.61s-.38.27-.59.34-.4.11-.58.11Z"/>
    <path class="cls-2" d="M17.52,15.92v-.32l.53-.21s.07-.04.09-.07c.02-.03.03-.08.03-.14v-4.59c0-.06-.01-.1-.04-.13-.02-.03-.05-.05-.09-.07l-.53-.22v-.31h2.01v.31l-.53.22s-.07.04-.09.07-.04.08-.04.13v4.59c0,.06.01.11.04.14s.06.06.09.07l.53.21v.32h-2.01Z"/>
    <path class="cls-2" d="M20.26,15.92v-.32l.51-.24s.07-.04.09-.07c.02-.03.03-.08.03-.13v-4.56c0-.06-.01-.1-.04-.14-.02-.03-.05-.05-.09-.07l-.53-.22v-.31h1.35l2.28,4.18.25.54h.05v-3.97c0-.06-.01-.1-.04-.13s-.06-.05-.09-.07l-.5-.25v-.31h1.7v.31l-.5.25s-.06.04-.08.07c-.03.03-.04.07-.04.13v4.37l-.1.98h-.39l-2.48-4.53-.25-.55h-.05v4.28c0,.06.01.11.04.14.03.03.05.05.08.07l.5.24v.32h-1.7Z"/>
    <path class="cls-2" d="M25.9,15.92v-.32l.51-.21s.06-.04.09-.07.04-.08.04-.14v-4.59c0-.06-.01-.1-.04-.13-.02-.03-.05-.05-.09-.07l-.51-.22v-.31h2.16c.19,0,.39.03.6.08.21.06.42.15.63.29.21.14.4.32.57.55.17.23.31.52.41.87.1.35.15.77.15,1.25,0,.69-.11,1.26-.32,1.7s-.5.77-.86.98-.76.32-1.2.32h-2.14ZM27.23,10.37v5.04h.84c.55,0,.95-.21,1.21-.62.26-.41.38-1,.38-1.75,0-.55-.07-1.03-.22-1.42-.15-.4-.36-.71-.63-.92-.27-.22-.59-.33-.95-.33h-.63Z"/>
  </g>
  <g>
    <path class="cls-1" d="M7.42,19.92v-.1l.21-.07s.03-.01.04-.02c0,0,.01-.03.01-.04v-.67l-.26.04-.5.73s-.05.07-.07.09-.04.04-.07.05c-.03,0-.06.01-.11,0l-.29-.02v-.1l.19-.06s.03-.01.04-.02c.01,0,.03-.02.04-.03.01-.01.02-.02.03-.03l.55-.78c-.06-.04-.11-.1-.15-.17-.04-.07-.07-.14-.1-.21-.03-.07-.06-.13-.09-.17s-.06-.07-.1-.07c-.02,0-.05,0-.09,0-.04,0-.08,0-.12,0h-.05v-.29s.05,0,.08-.01c.03,0,.06,0,.09,0,.06,0,.12.01.16.03s.08.06.12.11c.04.05.07.1.09.15.02.05.04.11.06.17.02.06.05.12.08.19.04.06.09.13.15.2.02.03.05.04.09.06.03.01.07.02.1.02h.13v-.67s0-.03-.01-.04c0-.01-.02-.02-.04-.02l-.21-.07v-.1h.79v.1l-.2.07s-.03.01-.04.02c0,0-.01.02-.01.04v.67h.13s.07,0,.1-.02c.03-.01.06-.03.09-.06.07-.07.12-.14.15-.2.03-.07.06-.13.08-.19.02-.06.04-.12.06-.17.02-.05.05-.1.09-.15.04-.05.08-.08.12-.11.04-.02.1-.03.16-.03.03,0,.06,0,.09,0,.03,0,.06,0,.09.01v.29h-.07s-.08,0-.12,0c-.04,0-.07,0-.09,0-.04,0-.07.02-.1.07-.03.05-.06.1-.09.17-.03.07-.06.14-.1.21-.04.07-.09.13-.15.17l.55.78s.02.02.03.03.02.02.04.03c.01,0,.03.02.04.02l.19.06v.1l-.3.02s-.08,0-.11,0c-.03,0-.05-.03-.07-.05-.02-.02-.04-.05-.07-.09l-.5-.73-.25-.04v.67s0,.04.01.04c0,.01.02.02.04.02l.2.07v.1h-.79Z"/>
    <path class="cls-1" d="M9.42,19.92v-.1l.16-.05s.03-.01.04-.02c0,0,.01-.02.01-.04v-1s0-.03-.01-.04c-.01,0-.02-.02-.04-.02l-.16-.05v-.1h.65v.1l-.12.05s-.03.01-.04.02c-.01,0-.02.02-.02.04v.7l-.02.17h.02l.71-1v-.09h.47v.1l-.16.05s-.03.01-.04.02-.01.02-.01.04v1s0,.03.01.04.02.02.04.02l.16.05v.1h-.65v-.1l.13-.05s.03-.01.04-.02c.01,0,.02-.02.02-.04v-.7l.02-.17h-.02l-.71,1v.08h-.47Z"/>
    <path class="cls-1" d="M11.36,19.92v-.1l.16-.05s.03-.01.04-.02c0,0,.01-.02.01-.04v-1s0-.03-.01-.04c-.01,0-.02-.02-.04-.02l-.16-.05v-.1h.77c.14,0,.25.01.32.04s.13.06.15.11c.03.05.04.1.04.15,0,.09-.03.17-.1.23s-.15.11-.25.13h0c.08.02.16.04.22.07.07.03.12.07.16.12.04.05.06.11.06.18,0,.11-.03.19-.08.25s-.13.1-.22.12-.18.03-.28.03h-.79ZM11.84,18.64v.49h.14c.11-.02.2-.03.25-.05.06-.02.09-.05.11-.08.02-.03.03-.07.03-.12,0-.09-.03-.15-.08-.19s-.13-.06-.25-.06h-.2ZM11.84,19.26v.52h.27c.11,0,.2-.02.26-.05.06-.04.09-.1.09-.18,0-.1-.03-.17-.09-.22-.06-.04-.16-.07-.3-.07h-.22Z"/>
    <path class="cls-1" d="M13.04,19.92v-.1l.16-.05s.03-.01.04-.02c0,0,.01-.02.01-.04v-1s0-.03-.01-.04-.02-.02-.04-.02l-.16-.05v-.1h.65v.1l-.12.05s-.03.01-.04.02c-.01,0-.02.02-.02.04v.7l-.02.17h.02l.71-1v-.09h.47v.1l-.16.05s-.03.01-.04.02c0,0-.01.02-.01.04v1s0,.03.01.04c0,0,.02.02.04.02l.16.05v.1h-.65v-.1l.12-.05s.03-.01.04-.02c.01,0,.02-.02.02-.04v-.7l.02-.17h-.02l-.71,1v.08h-.47Z"/>
    <path class="cls-1" d="M15.84,19.92v-.1l.16-.05s.03-.01.04-.02.01-.02.01-.04v-1s0-.03-.01-.04-.02-.02-.04-.02l-.16-.05v-.1h.77c.14,0,.25.01.32.04.08.03.13.06.16.11.03.05.04.1.04.15,0,.09-.03.17-.1.23-.06.06-.15.11-.25.13h0c.08.02.16.04.22.07.07.03.12.07.16.12.04.05.06.11.06.18,0,.11-.03.19-.08.25-.06.06-.13.1-.22.12-.09.02-.18.03-.28.03h-.79ZM16.31,18.64v.49h.14c.11-.02.2-.03.25-.05s.09-.05.11-.08c.02-.03.03-.07.03-.12,0-.09-.03-.15-.08-.19s-.13-.06-.25-.06h-.2ZM16.31,19.26v.52h.27c.11,0,.2-.02.26-.05s.09-.1.09-.18c0-.1-.03-.17-.09-.22-.06-.04-.16-.07-.3-.07h-.22Z"/>
    <path class="cls-1" d="M18.37,19.92v-.1l.16-.05s.03-.01.04-.02.01-.02.01-.04v-1s0-.03-.01-.04-.02-.02-.04-.02l-.16-.05v-.1h.66v.1l-.12.05s-.03.01-.04.02c-.01,0-.02.02-.02.04v.44h.13s.07,0,.1-.01c.03,0,.06-.03.08-.05.04-.04.07-.09.09-.15s.05-.13.07-.19c.02-.06.05-.11.08-.15.04-.04.08-.08.11-.1.04-.02.09-.03.15-.03.03,0,.06,0,.08,0s.05,0,.08,0v.26h-.06s-.07,0-.11-.01c-.04,0-.06,0-.08,0-.03,0-.05.01-.06.04s-.03.07-.05.11-.04.09-.07.14c-.03.05-.06.09-.1.12l.36.57s.02.03.04.04c.02,0,.03.02.05.02l.18.05v.1l-.3.02c-.06,0-.11,0-.14-.03-.03-.02-.06-.06-.09-.12l-.28-.5-.24-.05v.46s0,.03.02.04c.01,0,.02.02.04.02l.12.05v.1h-.66Z"/>
    <path class="cls-1" d="M20.51,19.95c-.09,0-.16-.02-.22-.06s-.11-.09-.14-.15c-.03-.06-.05-.13-.05-.2,0-.09.02-.17.07-.23.04-.06.1-.11.17-.15.07-.04.15-.07.23-.08.08-.02.15-.03.22-.03.01,0,.04,0,.07,0,.03,0,.06,0,.09,0,.03,0,.05,0,.06,0v-.2c0-.1-.02-.17-.07-.21-.05-.04-.12-.06-.19-.06-.05,0-.09,0-.14.02-.05.02-.09.04-.13.06s-.08.05-.12.07c-.04.02-.07.04-.09.06h-.05v-.26s.09-.04.15-.06c.05-.02.11-.03.18-.05s.14-.02.22-.02c.09,0,.17.01.25.04s.14.07.19.14.08.16.07.29v.74s.01.06.04.08.06.03.09.03c.02,0,.04,0,.06-.01.02,0,.05-.02.07-.03h.02v.11s-.04.03-.07.05-.07.04-.1.05c-.04.01-.07.02-.1.02-.08,0-.15-.02-.19-.06-.04-.04-.06-.1-.06-.18h-.02c-.05.07-.1.12-.16.16-.06.03-.12.06-.18.07s-.11.02-.16.02ZM20.64,19.76c.06,0,.12-.01.2-.04.07-.03.13-.06.17-.12v-.4c-.12,0-.23,0-.33.02-.09.02-.17.04-.22.09-.05.04-.08.11-.08.19,0,.07.01.12.04.16.03.04.06.06.1.08.04.01.08.02.12.02Z"/>
    <path class="cls-1" d="M21.71,19.92v-.1l.16-.05s.03-.01.04-.02c0,0,.01-.02.01-.04v-1s0-.03-.01-.04-.02-.02-.04-.02l-.16-.05v-.1h.65v.1l-.12.05s-.03.01-.04.02c-.01,0-.02.02-.02.04v.7l-.02.17h.02l.71-1v-.09h.47v.1l-.16.05s-.03.01-.04.02c0,0-.01.02-.01.04v1s0,.03.01.04c0,0,.02.02.04.02l.16.05v.1h-.66v-.1l.13-.05s.03-.01.04-.02c.01,0,.02-.02.02-.04v-.7l.02-.17h-.02l-.71,1v.08h-.47ZM22.55,18.26c-.12,0-.22-.02-.29-.05-.07-.03-.12-.08-.15-.12s-.05-.09-.05-.13v-.11h.28v.22s.04.05.08.06c.04.01.08.02.13.02s.09,0,.13-.02c.04-.01.07-.03.09-.06v-.17s0-.05,0-.05h.28v.11s-.02.08-.05.13c-.03.05-.08.09-.15.12-.07.04-.17.05-.29.05Z"/>
    <path class="cls-1" d="M24.47,18.46v.13c-.18,0-.32.06-.4.16-.08.1-.12.25-.12.45,0,.11.02.21.05.3s.09.16.17.22c.08.06.18.09.3.09v.13c-.11,0-.22-.02-.32-.05-.1-.04-.19-.09-.26-.15-.08-.07-.14-.14-.18-.23-.04-.09-.07-.19-.07-.3,0-.18.04-.32.11-.43.07-.11.17-.19.3-.24.12-.05.26-.08.41-.08ZM24.2,20.58v-.1l.19-.05s.03-.01.04-.02.01-.02.01-.04v-2.34s0-.03-.02-.04c-.01,0-.02-.02-.04-.03l-.17-.07v-.1l.49-.02v2.6s0,.03.02.04.02.02.04.02l.19.06v.1h-.75ZM24.69,18.59v-.13c.15,0,.29.03.42.08s.22.13.3.24c.07.11.11.25.11.43,0,.11-.02.21-.06.3-.04.09-.1.17-.18.23-.08.07-.16.12-.26.15-.1.04-.21.05-.32.05v-.13c.12,0,.22-.03.3-.09.08-.06.13-.13.17-.22s.05-.19.05-.3c0-.21-.04-.36-.12-.46-.08-.1-.22-.15-.4-.16Z"/>
  </g>
</svg>